# xmcd
#
# Track frame offsets: 
#        150
#        15102
#        29109
#        44147
#        71469
#        85746
#        105630
#        120923
#        137319
#        154902
#        172130
#        188671
#        203852
#        220740
#        234709
#        252012
#
# Disc length: 3606 seconds
#
# Revision: 2
# Processed by: cddbd v1.5.2PL0 Copyright (c) Steve Scherf et al.
# Submitted via: ExactAudioCopy v0.99pb5
#
DISCID=d40e1410
DTITLE=Various Artist - Barry White and Friends cd 3
DYEAR=2007
DGENRE=Blues
TTITLE0=Al Jarreau - Let's Stay Togheter
TTITLE1=Wilson Pickett - It's Too Late
TTITLE2=Edwin Starr - 25 Miles
TTITLE3=Bobby Womack - Tell Me Why
TTITLE4=Commodores - Rise Up
TTITLE5=The Smooth operators - Can't Het Enough Of Your Love Babe
TTITLE6=The Drifters - Don't Want To Be Right
TTITLE7=Curtis Mayfield - Do Be Down
TTITLE8=Al Jarreau - Lean On Me
TTITLE9=Percy Sledge - Try A Little Tenderness
TTITLE10=Aaron Neville - Cry Me A River
TTITLE11=The Smooth operators - You're the First, My Last, My Everythi
TTITLE11=ng
TTITLE12=Curtis Mayfield - Show Me Love
TTITLE13=Al Wilson - Touch And Go
TTITLE14=Bobby Womack - Across 110th Street
TTITLE15=Lou Rawls - Lady Love
EXTD=
EXTT0=
EXTT1=
EXTT2=
EXTT3=
EXTT4=
EXTT5=
EXTT6=
EXTT7=
EXTT8=
EXTT9=
EXTT10=
EXTT11=
EXTT12=
EXTT13=
EXTT14=
EXTT15=
PLAYORDER=
